<svg width="62" height="18" viewBox="0 0 62 18" fill="none" xmlns="http://www.w3.org/2000/svg">
<path d="M0 0.349298H3.75698V17.4287H0V0.285806V0.349298ZM7.98752 0.349298H15.7856C17.9325 0.349298 19.5742 0.920726 20.7423 2.06358C21.2336 2.58889 21.6153 3.20788 21.8648 3.884C22.1142 4.56012 22.2263 5.27965 22.1946 6.00009V6.03184C22.1946 7.42866 21.8789 8.57152 21.1843 9.42866C20.503 10.2952 19.5958 10.9546 18.5639 11.3334L22.6997 17.4604H18.3429L14.6806 11.9683H11.7761V17.4604H8.05066V0.285806L7.98752 0.349298ZM15.5646 8.63501C16.4802 8.63501 17.1748 8.44453 17.6799 8.00009C17.9255 7.7773 18.1183 7.50191 18.244 7.19422C18.3696 6.88653 18.425 6.55439 18.406 6.22231V6.19057C18.406 5.36517 18.1535 4.76199 17.6483 4.3493C17.1116 3.9366 16.3855 3.71438 15.4699 3.71438H11.7445V8.63501H15.533H15.5646ZM33.8759 17.7461C31.4577 17.7737 29.1242 16.8511 27.3723 15.1747C26.5486 14.3678 25.8992 13.3988 25.4647 12.3282C25.0301 11.2576 24.8197 10.1085 24.8466 8.95247V8.85723C24.8251 7.10467 25.3326 5.38675 26.302 3.93017C27.2715 2.47359 28.6574 1.3468 30.2768 0.698504C31.3818 0.25406 32.5815 9.15234e-05 33.9075 9.15234e-05C36.3193 -0.0106414 38.6405 0.922991 40.3796 2.60327C41.2033 3.41019 41.8526 4.37918 42.2872 5.44976C42.7218 6.52033 42.9322 7.66949 42.9053 8.82549V8.85723C42.9268 10.6098 42.4193 12.3277 41.4498 13.7843C40.4804 15.2409 39.0945 16.3677 37.4751 17.016C36.3349 17.4955 35.1118 17.7436 33.8759 17.7461ZM33.8759 14.2541C34.5648 14.2635 35.2483 14.1303 35.8838 13.8627C36.5193 13.5951 37.0932 13.1988 37.5698 12.6985C38.5041 11.6796 39.0128 10.3383 38.9905 8.95247V8.85723C39.0208 7.44523 38.4994 6.07755 37.5382 5.04771C37.062 4.54467 36.4889 4.14448 35.8538 3.87158C35.2188 3.59867 34.535 3.45877 33.8444 3.46041C33.1587 3.46123 32.4805 3.60238 31.8509 3.87527C31.2212 4.14816 30.6535 4.54707 30.1821 5.04771C29.2286 6.06963 28.7078 7.4244 28.7298 8.82549V8.85723C28.7283 10.2641 29.2457 11.6215 30.1821 12.6668C30.6557 13.1429 31.1924 13.5239 31.8238 13.8096C32.4552 14.1271 33.1498 14.2541 33.9075 14.2541H33.8759ZM46.2519 0.349298H49.7247L57.6806 10.889V0.349298H61.3429V17.4287H58.1858L49.9141 6.53977V17.4287H46.2203V0.285806L46.2519 0.349298Z" fill="white"/>
</svg>
