<svg width="592" height="92" viewBox="0 0 592 92" fill="none" xmlns="http://www.w3.org/2000/svg">
<path d="M0.000390761 36.85H18.0504C26.4504 36.85 31.3004 33.25 31.3004 27.2V27.1C31.3004 22.35 28.6004 19.95 24.3504 18.55C27.5004 17.2 29.7504 14.8 29.7504 10.75V10.65C29.7504 8.24997 28.9004 6.39997 27.5004 4.94998C25.4504 2.94997 22.3504 1.84997 17.9504 1.84997H0.000390761V36.85ZM20.2004 12.75C20.2004 14.8 18.5504 15.8 15.5504 15.8H9.45039V9.64997H15.8004C18.7504 9.64997 20.2004 10.65 20.2004 12.65V12.75ZM21.6004 25.85C21.6004 27.9 19.9504 29.05 16.9504 29.05H9.45039V22.6H16.8504C20.1004 22.6 21.6004 23.8 21.6004 25.75V25.85ZM48.6426 37.5C54.0426 37.5 57.7426 35.35 60.3426 32L55.0926 27.65C53.1426 29.6 51.4426 30.4 49.0926 30.4C46.0926 30.4 43.9926 28.95 43.2426 25.95H61.3426C61.3926 25.3 61.3926 24.6 61.3926 24C61.3926 16.05 57.0926 9.19997 47.7926 9.19997C39.7926 9.19997 34.1426 15.5 34.1426 23.35V23.45C34.1426 31.8 40.1426 37.5 48.6426 37.5ZM43.0926 21.1C43.6426 18.1 45.2426 16.2 47.7926 16.2C50.3926 16.2 52.1926 18.1 52.5426 21.1H43.0926ZM76.2648 37.4C78.9148 37.4 81.1148 36.75 82.8648 35.8V28.4C81.7148 28.95 80.5148 29.3 79.2648 29.3C77.5148 29.3 76.6648 28.55 76.6648 26.6V17.4H82.9648V9.79998H76.6648V2.94997H67.2148V9.79998H64.0148V17.4H67.2148V28.45C67.2148 34.9 70.5148 37.4 76.2648 37.4ZM94.798 37.45C98.398 37.45 100.848 36.05 102.798 34V36.85H112.148V21.3C112.148 17.5 111.298 14.7 109.248 12.7C107.098 10.55 103.798 9.39997 98.948 9.39997C94.298 9.39997 91.048 10.25 87.998 11.5L89.948 18.15C92.398 17.2 94.598 16.65 97.448 16.65C101.098 16.65 102.848 18.25 102.848 21.1V21.55C101.298 20.95 98.898 20.5 96.348 20.5C89.998 20.5 85.748 23.35 85.748 29V29.1C85.748 34.45 89.648 37.45 94.798 37.45ZM98.198 31.5C96.248 31.5 94.848 30.4 94.848 28.55V28.45C94.848 26.4 96.398 25.1 99.198 25.1C100.598 25.1 101.948 25.4 102.948 25.8V27.05C102.948 29.8 100.998 31.5 98.198 31.5ZM146.27 37.45C154.77 37.45 160.42 33.2 160.42 26.05V25.95C160.42 19.4 155.42 16.8 147.42 15.05C142.52 14 141.32 13.2 141.32 11.65V11.55C141.32 10.2 142.47 9.29998 144.82 9.29998C147.97 9.29998 151.42 10.4 154.62 12.75L159.47 5.89997C155.67 2.84998 151.07 1.24997 145.07 1.24997C136.67 1.24997 131.52 5.89997 131.52 12.45V12.55C131.52 19.75 137.32 21.8 144.72 23.5C149.52 24.7 150.67 25.4 150.67 26.9V27C150.67 28.55 149.27 29.4 146.62 29.4C142.62 29.4 138.82 28 135.27 25.2L129.87 31.65C134.27 35.5 140.02 37.45 146.27 37.45ZM178.387 37.5C187.037 37.5 193.387 31.1 193.387 23.35V23.25C193.387 15.55 187.137 9.19997 178.487 9.19997C169.837 9.19997 163.537 15.6 163.537 23.35V23.45C163.537 31.2 169.787 37.5 178.387 37.5ZM178.487 29.45C175.137 29.45 172.737 26.65 172.737 23.35V23.25C172.737 19.9 174.937 17.2 178.387 17.2C181.787 17.2 184.187 20 184.187 23.35V23.45C184.187 26.7 181.937 29.45 178.487 29.45ZM198.855 36.85H208.355V17.4H214.405V10.1H208.155V9.44997C208.155 7.74997 209.055 6.89997 210.855 6.89997C212.255 6.89997 213.255 7.09997 214.405 7.44998V0.749972C212.955 0.299975 211.105 -2.68221e-05 208.255 -2.68221e-05C205.005 -2.68221e-05 202.805 0.699973 201.155 2.34997C199.605 3.89997 198.855 6.19997 198.855 9.34997V9.89997H195.705V17.4H198.855V36.85ZM228.12 37.4C230.77 37.4 232.97 36.75 234.72 35.8V28.4C233.57 28.95 232.37 29.3 231.12 29.3C229.37 29.3 228.52 28.55 228.52 26.6V17.4H234.82V9.79998H228.52V2.94997H219.07V9.79998H215.87V17.4H219.07V28.45C219.07 34.9 222.37 37.4 228.12 37.4ZM245.254 37.05H253.354L257.854 22.95L262.254 37.05H270.454L278.804 9.79998H269.654L266.004 23.5L261.804 9.69997H254.004L249.804 23.4L246.254 9.79998H237.004L245.254 37.05ZM288.45 37.45C292.05 37.45 294.5 36.05 296.45 34V36.85H305.8V21.3C305.8 17.5 304.95 14.7 302.9 12.7C300.75 10.55 297.45 9.39997 292.6 9.39997C287.95 9.39997 284.7 10.25 281.65 11.5L283.6 18.15C286.05 17.2 288.25 16.65 291.1 16.65C294.75 16.65 296.5 18.25 296.5 21.1V21.55C294.95 20.95 292.55 20.5 290 20.5C283.65 20.5 279.4 23.35 279.4 29V29.1C279.4 34.45 283.3 37.45 288.45 37.45ZM291.85 31.5C289.9 31.5 288.5 30.4 288.5 28.55V28.45C288.5 26.4 290.05 25.1 292.85 25.1C294.25 25.1 295.6 25.4 296.6 25.8V27.05C296.6 29.8 294.65 31.5 291.85 31.5ZM310.632 36.85H320.132V28.4C320.132 22.15 322.882 19.35 327.882 19.35H328.682V9.34997C324.132 9.14997 321.682 11.6 320.132 15.25V9.79998H310.632V36.85ZM344.98 37.5C350.38 37.5 354.08 35.35 356.68 32L351.43 27.65C349.48 29.6 347.78 30.4 345.43 30.4C342.43 30.4 340.33 28.95 339.58 25.95H357.68C357.73 25.3 357.73 24.6 357.73 24C357.73 16.05 353.43 9.19997 344.13 9.19997C336.13 9.19997 330.48 15.5 330.48 23.35V23.45C330.48 31.8 336.48 37.5 344.98 37.5ZM339.43 21.1C339.98 18.1 341.58 16.2 344.13 16.2C346.73 16.2 348.53 18.1 348.88 21.1H339.43ZM377.393 36.85H387.093V26.85H391.943C400.593 26.85 406.943 22.5 406.943 14.2V14.1C406.943 6.34997 401.243 1.84997 392.443 1.84997H377.393V36.85ZM387.093 19.25V9.99998H391.693C395.143 9.99998 397.293 11.55 397.293 14.55V14.65C397.293 17.45 395.143 19.25 391.743 19.25H387.093ZM410.486 36.85H419.986V28.4C419.986 22.15 422.736 19.35 427.736 19.35H428.536V9.34997C423.986 9.14997 421.536 11.6 419.986 15.25V9.79998H410.486V36.85ZM445.184 37.5C453.834 37.5 460.184 31.1 460.184 23.35V23.25C460.184 15.55 453.934 9.19997 445.284 9.19997C436.634 9.19997 430.334 15.6 430.334 23.35V23.45C430.334 31.2 436.584 37.5 445.184 37.5ZM445.284 29.45C441.934 29.45 439.534 26.65 439.534 23.35V23.25C439.534 19.9 441.734 17.2 445.184 17.2C448.584 17.2 450.984 20 450.984 23.35V23.45C450.984 26.7 448.734 29.45 445.284 29.45ZM477.496 44.95C483.146 44.95 486.946 43.7 489.396 41.15C491.746 38.85 492.896 35.25 492.896 30.35V9.79998H483.396V13C481.396 10.85 479.046 9.19997 474.896 9.19997C468.696 9.19997 463.196 14 463.196 21.8V21.9C463.196 29.65 468.596 34.45 475.246 34.45C479.196 34.45 481.596 32.6 483.546 30.4V31.45C483.546 35.8 481.246 38.1 476.496 38.1C472.846 38.1 469.996 37.15 467.046 35.55L463.996 41.85C467.946 43.85 472.296 44.95 477.496 44.95ZM478.046 27.15C474.796 27.15 472.496 24.95 472.496 21.95V21.85C472.496 18.8 474.796 16.55 478.046 16.55C481.246 16.55 483.596 18.8 483.596 21.8V21.9C483.596 24.9 481.296 27.15 478.046 27.15ZM497.986 36.85H507.486V28.4C507.486 22.15 510.236 19.35 515.236 19.35H516.036V9.34997C511.486 9.14997 509.036 11.6 507.486 15.25V9.79998H497.986V36.85ZM525.853 37.45C529.453 37.45 531.903 36.05 533.853 34V36.85H543.203V21.3C543.203 17.5 542.353 14.7 540.303 12.7C538.153 10.55 534.853 9.39997 530.003 9.39997C525.353 9.39997 522.103 10.25 519.053 11.5L521.003 18.15C523.453 17.2 525.653 16.65 528.503 16.65C532.153 16.65 533.903 18.25 533.903 21.1V21.55C532.353 20.95 529.953 20.5 527.403 20.5C521.053 20.5 516.803 23.35 516.803 29V29.1C516.803 34.45 520.703 37.45 525.853 37.45ZM529.253 31.5C527.303 31.5 525.903 30.4 525.903 28.55V28.45C525.903 26.4 527.453 25.1 530.253 25.1C531.653 25.1 533.003 25.4 534.003 25.8V27.05C534.003 29.8 532.053 31.5 529.253 31.5ZM548.034 36.85H557.534V22.15C557.534 19.15 559.134 17.6 561.384 17.6C563.634 17.6 565.134 19.15 565.134 22.15V36.85H574.584V22.15C574.584 19.15 576.234 17.6 578.484 17.6C580.734 17.6 582.184 19.15 582.184 22.15V36.85H591.684V19.1C591.684 12.75 588.234 9.19997 582.434 9.19997C578.434 9.19997 575.734 10.85 573.384 13.6C571.934 10.8 569.184 9.19997 565.584 9.19997C561.784 9.19997 559.284 11.25 557.534 13.5V9.79998H548.034V36.85Z" fill="white"/>
<path d="M0.250391 90.85H9.95039V55.85H0.250391V90.85ZM15.8078 90.85H25.3078V82.4C25.3078 76.15 28.0578 73.35 33.0578 73.35H33.8578V63.35C29.3078 63.15 26.8578 65.6 25.3078 69.25V63.8H15.8078V90.85ZM50.5063 91.5C59.1562 91.5 65.5063 85.1 65.5063 77.35V77.25C65.5063 69.55 59.2563 63.2 50.6063 63.2C41.9563 63.2 35.6563 69.6 35.6563 77.35V77.45C35.6563 85.2 41.9063 91.5 50.5063 91.5ZM50.6063 83.45C47.2563 83.45 44.8563 80.65 44.8563 77.35V77.25C44.8563 73.9 47.0563 71.2 50.5063 71.2C53.9063 71.2 56.3063 74 56.3063 77.35V77.45C56.3063 80.7 54.0563 83.45 50.6063 83.45ZM69.5188 90.85H79.0188V76.2C79.0188 73.2 80.6688 71.6 83.0188 71.6C85.3688 71.6 86.8688 73.2 86.8688 76.2V90.85H96.3188V73.15C96.3188 66.95 92.9188 63.2 87.1188 63.2C83.2688 63.2 80.7688 65.35 79.0188 67.6V63.8H69.5188V90.85ZM101.758 90.85H111.458V80.85H116.308C124.958 80.85 131.308 76.5 131.308 68.2V68.1C131.308 60.35 125.608 55.85 116.808 55.85H101.758V90.85ZM111.458 73.25V64H116.058C119.508 64 121.658 65.55 121.658 68.55V68.65C121.658 71.45 119.508 73.25 116.108 73.25H111.458ZM135.401 90.85H148.751C161.301 90.85 168.651 83.4 168.651 73.25V73.15C168.651 63 161.401 55.85 148.951 55.85H135.401V90.85ZM149.051 64.4C154.901 64.4 158.751 67.65 158.751 73.3V73.4C158.751 79.05 154.901 82.25 149.051 82.25H145.101V64.4H149.051ZM173.682 90.85H183.382V78.35H199.932V70.3H183.382V64.35H201.682V55.85H173.682V90.85ZM222.293 90.85H231.793V71.4H237.843V64.1H231.593V63.45C231.593 61.75 232.493 60.9 234.293 60.9C235.693 60.9 236.693 61.1 237.843 61.45V54.75C236.393 54.3 234.543 54 231.693 54C228.443 54 226.243 54.7 224.593 56.35C223.043 57.9 222.293 60.2 222.293 63.35V63.9H219.143V71.4H222.293V90.85ZM254.12 91.5C262.77 91.5 269.12 85.1 269.12 77.35V77.25C269.12 69.55 262.87 63.2 254.22 63.2C245.57 63.2 239.27 69.6 239.27 77.35V77.45C239.27 85.2 245.52 91.5 254.12 91.5ZM254.22 83.45C250.87 83.45 248.47 80.65 248.47 77.35V77.25C248.47 73.9 250.67 71.2 254.12 71.2C257.52 71.2 259.92 74 259.92 77.35V77.45C259.92 80.7 257.67 83.45 254.22 83.45ZM273.132 90.85H282.632V82.4C282.632 76.15 285.382 73.35 290.382 73.35H291.182V63.35C286.632 63.15 284.182 65.6 282.632 69.25V63.8H273.132V90.85ZM326.959 91.55C334.659 91.55 339.059 88.2 342.409 83.65L335.109 78.45C332.959 81 330.859 82.7 327.209 82.7C322.309 82.7 318.859 78.6 318.859 73.35V73.25C318.859 68.15 322.309 63.95 327.209 63.95C330.609 63.95 332.859 65.6 334.859 68.05L342.159 62.4C339.109 58.15 334.409 55.15 327.309 55.15C316.709 55.15 308.909 63.15 308.909 73.35V73.45C308.909 83.9 316.959 91.55 326.959 91.55ZM355.181 86.15H363.881V77.45H372.681V69.05H363.881V60.35H355.181V69.05H346.381V77.45H355.181V86.15ZM387.164 86.15H395.864V77.45H404.664V69.05H395.864V60.35H387.164V69.05H378.364V77.45H387.164V86.15Z" fill="#C6AAC6"/>
</svg>
