<svg width="48" height="18" viewBox="0 0 48 18" fill="none" xmlns="http://www.w3.org/2000/svg">
<path d="M0 0.0634923H6.37739C7.32453 0.0634923 8.20852 0.190477 8.9978 0.444445C9.78708 0.698413 10.4501 1.04762 11.0184 1.49206C11.5752 1.99539 12.0182 2.61283 12.3177 3.30281C12.6173 3.99279 12.7663 4.7393 12.7548 5.49206V5.52381C12.7548 6.47619 12.5654 7.26984 12.2181 7.96825C11.8708 8.66666 11.3656 9.23809 10.7658 9.71428C10.1324 10.1939 9.41478 10.5493 8.65053 10.7619C7.82967 11.0159 6.97725 11.1111 6.06168 11.1111H1.95742V17.1429H0V0.0952378V0.0634923ZM6.15639 9.39682C6.85096 9.39682 7.48238 9.30159 8.05066 9.11111C8.58884 8.95402 9.09241 8.69546 9.53452 8.3492C9.93775 8.02076 10.2611 7.60411 10.4799 7.13098C10.6988 6.65786 10.8074 6.14075 10.7974 5.61905V5.55555C10.7974 4.34921 10.4185 3.39682 9.56609 2.79365C8.71367 2.19048 7.60867 1.84127 6.25111 1.84127H1.92585V9.39682H6.15639ZM16.2592 0.0634923H22.163C23.489 0.0634923 24.6887 0.253968 25.8253 0.698413C26.9303 1.14286 27.8774 1.74603 28.6667 2.50794C29.4868 3.27748 30.1357 4.2127 30.571 5.25222C31.0063 6.29174 31.218 7.41207 31.1924 8.53968V8.60317C31.2092 9.75615 30.9944 10.9007 30.561 11.9683C30.1277 13.0023 29.4822 13.9326 28.6667 14.6984C27.8439 15.4795 26.8792 16.0939 25.8253 16.5079C24.6887 16.9524 23.489 17.1429 22.163 17.1429H16.2592V0.0952378V0.0634923ZM22.163 15.3651C23.2364 15.3651 24.1836 15.2063 25.0676 14.8571C25.8861 14.5522 26.632 14.0783 27.2573 13.4659C27.8827 12.8536 28.3735 12.1163 28.6983 11.3016C29.0344 10.4644 29.206 9.56955 29.2034 8.66666V8.57143C29.2034 7.61905 29.0455 6.7619 28.6983 5.93651C28.3724 5.11505 27.8819 4.36982 27.2573 3.74721C26.6327 3.12459 25.8873 2.63791 25.0676 2.31746C24.1401 1.96473 23.1544 1.79237 22.163 1.80952H18.1535V15.3333H22.163V15.3651ZM35.2651 0.0634923H47.4831V1.84127H37.1909V7.93651H46.4097V9.68254H37.1593V17.1429H35.2651V0V0.0634923Z" fill="#E01A59"/>
</svg>
